<?xml version="1.0" encoding="utf-8"?>
<!-- Generator: Adobe Illustrator 16.0.0, SVG Export Plug-In . SVG Version: 6.00 Build 0)  -->
<!DOCTYPE svg PUBLIC "-//W3C//DTD SVG 1.1//EN" "http://www.w3.org/Graphics/SVG/1.1/DTD/svg11.dtd">
<svg version="1.1" id="Layer_1" xmlns="http://www.w3.org/2000/svg" xmlns:xlink="http://www.w3.org/1999/xlink" x="0px" y="0px"
	 width="841.89px" height="462.879px" viewBox="0 0 841.89 462.879" enable-background="new 0 0 841.89 462.879"
	 xml:space="preserve">
<g>
	<g>
		<g>
			<g>
				<path fill="#EEA630" d="M398.862,2.204v43.934c7.078-1.724,14.474-2.645,22.086-2.645c7.612,0,15.006,0.921,22.086,2.645V2.204
					c-7.189-1.172-14.564-1.792-22.086-1.792C413.426,0.411,406.052,1.031,398.862,2.204z"/>
			</g>
			<g>
				<path fill="#EEA630" d="M327.919,136.522c0-7.61,0.921-15.007,2.645-22.086H286.63c-1.172,7.191-1.794,14.566-1.794,22.086
					s0.622,14.896,1.794,22.086h43.934C328.84,151.529,327.919,144.133,327.919,136.522z"/>
			</g>
			<g>
				<path fill="#EEA630" d="M555.268,114.436h-43.936c1.727,7.079,2.645,14.476,2.645,22.086c0,7.611-0.918,15.007-2.645,22.086
					h43.936c1.172-7.191,1.791-14.567,1.791-22.086S556.439,121.627,555.268,114.436z"/>
			</g>
			<g>
				<path fill="#EEA630" d="M341.423,184.814l-31.064,31.063c8.645,12.028,19.204,22.588,31.234,31.232l31.061-31.062
					C359.91,208.292,349.174,197.56,341.423,184.814z"/>
			</g>
			<g>
				<path fill="#EEA630" d="M500.475,88.23l31.064-31.063c-8.648-12.03-19.207-22.587-31.236-31.234L469.24,56.996
					C481.984,64.751,492.721,75.485,500.475,88.23z"/>
			</g>
			<g>
				<path fill="#EEA630" d="M310.359,57.167l31.064,31.063c7.751-12.746,18.487-23.479,31.234-31.234l-31.064-31.063
					C329.563,34.58,319.006,45.137,310.359,57.167z"/>
			</g>
			<g>
				<path fill="#EEA630" d="M469.24,216.048l31.063,31.065c12.029-8.648,22.588-19.207,31.236-31.236l-31.064-31.063
					C492.721,197.56,481.984,208.295,469.24,216.048z"/>
			</g>
			<g>
				<path fill="#EEA630" d="M398.862,226.905v43.936c7.189,1.174,14.564,1.793,22.086,1.793c7.522,0,14.897-0.619,22.086-1.793
					v-43.936c-7.08,1.724-14.475,2.646-22.086,2.646C413.336,229.551,405.94,228.629,398.862,226.905z"/>
			</g>
		</g>
		<g>
			<g>
				<g>
					<path fill="#403833" d="M341.423,88.23l-31.064-31.063c-11.98,16.668-20.281,36.151-23.729,57.269h43.934
						C332.848,105.065,336.542,96.249,341.423,88.23z"/>
				</g>
			</g>
			<g>
				<g>
					<path fill="#403833" d="M398.862,46.138V2.204c-21.118,3.448-40.604,11.75-57.269,23.729l31.064,31.063
						C380.675,52.116,389.49,48.421,398.862,46.138z"/>
				</g>
			</g>
			<g>
				<g>
					<path fill="#403833" d="M555.268,114.436c-3.447-21.118-11.748-40.604-23.729-57.269L500.475,88.23
						c4.881,8.018,8.576,16.834,10.857,26.206H555.268z"/>
				</g>
			</g>
			<g>
				<g>
					<path fill="#403833" d="M500.303,25.933c-16.666-11.979-36.15-20.281-57.268-23.729v43.934
						c9.369,2.284,18.184,5.978,26.205,10.858L500.303,25.933z"/>
				</g>
			</g>
			<g>
				<g>
					<path fill="#403833" d="M286.63,158.608c3.448,21.117,11.749,40.601,23.729,57.269l31.064-31.063
						c-4.881-8.02-8.575-16.835-10.859-26.206H286.63z"/>
				</g>
			</g>
			<g>
				<g>
					<path fill="#403833" d="M500.475,184.814l31.064,31.063c11.98-16.668,20.281-36.152,23.729-57.269h-43.936
						C509.051,167.979,505.355,176.796,500.475,184.814z"/>
				</g>
			</g>
			<g>
				<g>
					<path fill="#403833" d="M443.035,226.905v43.936c21.117-3.449,40.602-11.748,57.268-23.727l-31.063-31.065
						C461.219,220.927,452.404,224.623,443.035,226.905z"/>
				</g>
			</g>
			<g>
				<g>
					<path fill="#403833" d="M341.593,247.11c16.665,11.982,36.151,20.281,57.269,23.73v-43.936
						c-9.372-2.282-18.188-5.978-26.208-10.856L341.593,247.11z"/>
				</g>
			</g>
		</g>
		<g>
			<path fill="#F0ECDA" d="M500.863,116.994c-2.018-8.285-5.285-16.082-9.6-23.17c-6.855-11.27-16.348-20.761-27.615-27.619
				c-7.092-4.314-14.889-7.579-23.172-9.599c-6.264-1.524-12.801-2.338-19.528-2.338c-6.73,0-13.268,0.814-19.528,2.338
				c-8.286,2.02-16.083,5.285-23.172,9.599c-11.27,6.859-20.759,16.349-27.619,27.619c-4.312,7.088-7.578,14.885-9.599,23.17
				c-1.522,6.262-2.337,12.8-2.337,19.528c0,6.73,0.814,13.267,2.337,19.528c2.021,8.284,5.287,16.081,9.599,23.17
				c6.86,11.269,16.349,20.759,27.619,27.618c7.089,4.313,14.886,7.581,23.172,9.599c6.261,1.524,12.798,2.338,19.528,2.338
				c6.727,0,13.264-0.814,19.528-2.338c8.283-2.018,16.08-5.285,23.172-9.599c11.268-6.858,20.76-16.349,27.615-27.618
				c4.314-7.088,7.582-14.887,9.6-23.17c1.525-6.262,2.34-12.798,2.34-19.528C503.203,129.793,502.389,123.256,500.863,116.994z"/>
		</g>
		<g>
			<path fill="#EC7923" d="M475.395,130.621h-48.547V82.078c0-3.257-2.641-5.901-5.899-5.901c-3.258,0-5.902,2.644-5.902,5.901
				v48.543h-48.543c-3.257,0-5.902,2.644-5.902,5.901c0,3.258,2.645,5.901,5.902,5.901h48.543v48.543c0,3.259,2.645,5.9,5.902,5.9
				c3.258,0,5.899-2.642,5.899-5.9v-48.543h48.547c3.256,0,5.902-2.643,5.902-5.901C481.297,133.265,478.65,130.621,475.395,130.621
				z"/>
		</g>
		<g>
			<path fill="#EC7923" d="M436.99,132.603c-0.404-1.663-1.064-3.23-1.93-4.651c-1.377-2.261-3.281-4.168-5.543-5.544
				c-1.422-0.865-2.99-1.522-4.65-1.927c-1.258-0.305-2.566-0.47-3.918-0.47s-2.664,0.165-3.921,0.47
				c-1.662,0.404-3.227,1.062-4.651,1.927c-2.261,1.378-4.164,3.283-5.541,5.544c-0.868,1.421-1.525,2.989-1.928,4.651
				c-0.305,1.256-0.47,2.567-0.47,3.919c0,1.351,0.165,2.663,0.47,3.919c0.402,1.663,1.06,3.228,1.928,4.651
				c1.377,2.261,3.28,4.166,5.541,5.542c1.425,0.866,2.989,1.524,4.651,1.927c1.257,0.306,2.569,0.47,3.921,0.47
				s2.661-0.164,3.918-0.47c1.66-0.403,3.229-1.061,4.65-1.927c2.262-1.377,4.166-3.281,5.543-5.542
				c0.865-1.423,1.525-2.989,1.93-4.651c0.305-1.257,0.469-2.569,0.469-3.919C437.459,135.17,437.295,133.859,436.99,132.603z"/>
		</g>
	</g>
	<g>
		<path fill="#FFFFFF" d="M25.76,409.462c-1.07,0-2.106-0.101-3.109-0.302c-1.003-0.2-1.973-0.568-2.909-1.103
			c-2.943-1.271-5.215-3.21-6.82-5.817c-1.604-2.608-2.575-5.718-2.909-9.328c-0.335-4.547,0.384-9.595,2.157-15.146
			c1.771-5.549,4.263-11.033,7.472-16.449s6.954-10.531,11.233-15.346c4.278-4.814,8.792-8.726,13.541-11.735
			c5.148-3.343,10.13-5.266,14.945-5.767c4.814-0.502,9.293,0.418,13.44,2.758c3.543,1.94,5.817,4.581,6.82,7.924
			c1.003,3.345,0.667,6.988-1.003,10.933c-1.003,2.342-2.424,4.548-4.263,6.62c-1.84,2.073-3.912,3.778-6.219,5.115
			c-2.307,1.338-4.749,2.241-7.322,2.708c-2.575,0.469-5.132,0.268-7.673-0.602c-0.736-0.201-1.254-0.635-1.555-1.305
			c-0.301-0.667-0.318-1.304-0.05-1.905c0.133-0.735,0.518-1.254,1.154-1.555c0.635-0.301,1.319-0.351,2.056-0.15
			c1.871,0.602,3.761,0.702,5.667,0.301c1.906-0.401,3.727-1.136,5.467-2.206c1.738-1.069,3.31-2.407,4.714-4.013
			c1.404-1.604,2.507-3.275,3.31-5.015c0.333-0.803,0.634-1.738,0.902-2.809c0.267-1.068,0.317-2.156,0.15-3.26
			c-0.167-1.104-0.586-2.206-1.253-3.31c-0.669-1.104-1.806-2.122-3.41-3.06c-2.074-1.068-4.163-1.705-6.269-1.905
			c-2.106-0.2-4.162-0.101-6.168,0.301c-2.006,0.401-3.929,1.021-5.767,1.855c-1.84,0.837-3.495,1.723-4.965,2.658
			c-2.875,1.873-5.684,4.112-8.425,6.72c-2.743,2.608-5.333,5.467-7.773,8.576c-2.442,3.109-4.664,6.369-6.67,9.779
			s-3.711,6.805-5.115,10.18c-1.404,3.378-2.458,6.67-3.16,9.88s-0.953,6.184-0.752,8.927c0.401,5.216,2.608,8.826,6.62,10.832
			c1.404,0.534,2.858,0.785,4.363,0.752c1.504-0.034,3.059-0.418,4.664-1.153c2.006-0.802,3.962-1.99,5.868-3.561
			c1.906-1.571,3.677-3.344,5.316-5.315c1.638-1.974,3.075-4.047,4.313-6.219c1.236-2.172,2.222-4.229,2.958-6.169
			c0.334-0.734,0.803-1.269,1.404-1.604c0.602-0.334,1.204-0.334,1.806,0c0.735,0.201,1.253,0.602,1.554,1.204
			c0.301,0.602,0.351,1.271,0.151,2.006c-0.803,2.206-1.906,4.53-3.31,6.971s-3.026,4.78-4.865,7.021
			c-1.84,2.24-3.878,4.296-6.118,6.169c-2.241,1.871-4.563,3.31-6.971,4.313c-1.204,0.534-2.392,0.936-3.561,1.204
			C28.25,409.327,27.029,409.462,25.76,409.462z M53.543,377.667c-1.806,0-3.628-0.233-5.466-0.701
			c-1.84-0.468-3.595-0.969-5.266-1.505c-2.141-0.668-4.162-1.169-6.068-1.505c-1.906-0.333-3.294-0.065-4.163,0.803
			c-0.536,0.536-1.138,0.803-1.805,0.803c-0.669,0-1.271-0.267-1.806-0.803c-0.536-0.534-0.802-1.136-0.802-1.806
			c0-0.667,0.267-1.27,0.802-1.805c1.003-0.937,2.089-1.57,3.26-1.906c1.169-0.334,2.407-0.484,3.711-0.451
			c1.304,0.034,2.673,0.235,4.112,0.602c1.437,0.368,2.858,0.752,4.263,1.153c1.269,0.401,2.59,0.787,3.961,1.153
			c1.37,0.369,2.674,0.603,3.912,0.702c1.236,0.101,2.423,0.035,3.561-0.2c1.136-0.233,2.172-0.718,3.109-1.454
			c0.602-0.535,1.236-0.769,1.905-0.702c0.668,0.067,1.27,0.401,1.806,1.003c0.401,0.469,0.584,1.07,0.552,1.806
			c-0.035,0.736-0.285,1.338-0.752,1.805C59.694,376.664,56.752,377.667,53.543,377.667z"/>
		<path fill="#FFFFFF" d="M100.182,398.228h-46.74c-0.735,0-1.354-0.25-1.855-0.752c-0.501-0.501-0.752-1.12-0.752-1.855
			c0-0.736,0.251-1.371,0.752-1.905c0.501-0.536,1.121-0.803,1.855-0.803h46.74c0.735,0,1.319,0.267,1.755,0.803
			c0.434,0.534,0.652,1.169,0.652,1.905c0,0.735-0.218,1.354-0.652,1.855C101.501,397.978,100.917,398.228,100.182,398.228z
			 M74.706,390.505c-0.737,0-1.455-0.067-2.157-0.2c-0.702-0.135-1.388-0.469-2.056-1.004c-0.536-0.333-1.103-0.936-1.705-1.805
			c-0.602-0.868-0.87-2.072-0.802-3.611c0.133-1.938,0.918-4.162,2.357-6.67c1.437-2.507,3.275-4.98,5.517-7.422
			c2.239-2.44,4.729-4.765,7.472-6.971c2.741-2.207,5.482-3.978,8.225-5.316c3.744-1.67,7.222-2.49,10.431-2.457
			c3.209,0.034,6.084,0.953,8.626,2.759c0.602,0.4,0.953,0.952,1.053,1.654c0.101,0.702-0.05,1.354-0.451,1.956
			c-0.469,0.536-1.038,0.87-1.705,1.003c-0.669,0.135-1.304-0.033-1.906-0.501c-1.138-0.735-2.291-1.22-3.46-1.455
			c-1.17-0.233-2.357-0.301-3.561-0.2s-2.374,0.351-3.51,0.752c-1.138,0.401-2.207,0.837-3.209,1.304
			c-2.675,1.271-5.25,2.909-7.723,4.915c-2.475,2.006-4.648,4.063-6.52,6.168c-1.873,2.106-3.377,4.147-4.514,6.119
			c-1.138,1.973-1.739,3.561-1.805,4.764c0,0.401,0.033,0.637,0.1,0.702c0.936,0.602,2.24,0.502,3.912-0.301
			c1.671-0.803,3.243-1.905,4.714-3.31c0.534-0.535,1.136-0.785,1.805-0.753c0.668,0.035,1.27,0.352,1.806,0.953
			c0.534,0.536,0.802,1.138,0.802,1.806c0,0.669-0.268,1.271-0.802,1.805c-1.472,1.339-3.177,2.559-5.115,3.661
			C78.583,389.954,76.644,390.505,74.706,390.505z M92.057,389.803c-1.472,0-2.524-0.316-3.159-0.953
			c-0.636-0.635-1.021-1.119-1.154-1.454c-0.268-0.534-0.401-1.169-0.401-1.905c0-0.735,0.25-1.688,0.752-2.859
			c0.501-1.169,1.304-2.573,2.407-4.212c1.104-1.638,2.658-3.627,4.664-5.968c1.003-1.204,2.006-2.357,3.009-3.461
			c1.003-1.103,1.889-2.089,2.658-2.958c0.768-0.869,1.404-1.555,1.906-2.057s0.785-0.785,0.853-0.853
			c0.534-0.534,1.153-0.803,1.855-0.803s1.319,0.269,1.855,0.803c0.534,0.469,0.802,1.07,0.802,1.806
			c0,0.736-0.268,1.371-0.802,1.905c-1.805,1.739-3.495,3.478-5.065,5.216c-1.572,1.739-2.994,3.395-4.263,4.965
			c-1.271,1.572-2.342,3.009-3.21,4.313c-0.87,1.304-1.504,2.357-1.906,3.16c1.136-0.134,2.458-0.552,3.962-1.254
			s3.009-1.487,4.514-2.357c1.504-0.868,2.941-1.755,4.313-2.658c1.37-0.902,2.523-1.654,3.46-2.257
			c0.334-0.266,0.635-0.467,0.903-0.602c0.267-0.133,0.535-0.301,0.802-0.501c0.602-0.401,1.27-0.518,2.006-0.352
			c0.735,0.168,1.269,0.519,1.604,1.054c0.401,0.602,0.517,1.253,0.351,1.955c-0.167,0.702-0.519,1.254-1.053,1.655
			c-0.268,0.201-0.536,0.368-0.802,0.502c-0.268,0.135-0.569,0.335-0.903,0.602c-1.739,1.138-3.51,2.273-5.316,3.41
			c-1.805,1.138-3.578,2.156-5.315,3.059c-1.74,0.903-3.41,1.64-5.015,2.207C94.765,389.52,93.327,389.803,92.057,389.803z"/>
		<path fill="#FFFFFF" d="M159.256,398.228H100.18c-0.735,0-1.337-0.25-1.805-0.752c-0.467-0.501-0.702-1.12-0.702-1.855
			c0-0.736,0.235-1.371,0.702-1.905c0.468-0.536,1.07-0.803,1.805-0.803h59.076c0.735,0,1.37,0.267,1.906,0.803
			c0.535,0.534,0.803,1.169,0.803,1.905c0,0.735-0.268,1.354-0.803,1.855C160.626,397.978,159.992,398.228,159.256,398.228z
			 M114.021,388.6c-0.669,0-1.204-0.167-1.605-0.502c-0.536-0.467-0.853-1.053-0.953-1.755s0.116-1.32,0.652-1.855
			c1.337-1.738,3.009-3.928,5.015-6.57c2.006-2.641,3.995-5.331,5.968-8.074c1.972-2.74,3.744-5.298,5.316-7.673
			c1.57-2.372,2.558-4.162,2.959-5.365c-0.602-0.134-1.121-0.417-1.555-0.854c-0.436-0.434-0.652-0.985-0.652-1.654
			c0-0.735,0.267-1.354,0.803-1.855c0.534-0.502,1.169-0.753,1.906-0.753c1.336,0,2.322,0.269,2.958,0.803
			c0.635,0.536,1.119,1.104,1.455,1.705c0.467,0.803,0.584,1.84,0.351,3.109c-0.235,1.271-1.07,3.109-2.508,5.517
			c-1.438,2.407-3.595,5.584-6.469,9.528c-2.875,3.946-6.754,9.027-11.635,15.245C115.492,388.266,114.824,388.6,114.021,388.6z
			 M132.777,389.803c-0.669,0-1.238-0.2-1.705-0.602c-0.468-0.401-0.752-0.953-0.853-1.655c-0.1-0.702,0.116-1.354,0.652-1.956
			c0.602-0.802,1.37-1.805,2.307-3.009c0.936-1.203,1.938-2.523,3.009-3.962c1.069-1.437,2.172-2.941,3.31-4.514
			c1.136-1.57,2.207-3.125,3.209-4.663c1.47-2.272,2.624-4.195,3.46-5.768c0.835-1.57,1.437-2.842,1.805-3.812
			c0.367-0.969,0.567-1.688,0.602-2.156c0.033-0.467,0.016-0.768-0.05-0.902c-0.802-0.267-1.722-0.151-2.758,0.351
			c-1.037,0.502-2.524,1.422-4.463,2.758c-0.536,0.469-1.153,0.619-1.855,0.452s-1.288-0.518-1.755-1.054
			c-0.335-0.602-0.418-1.236-0.251-1.905c0.166-0.668,0.517-1.236,1.053-1.705c0.802-0.603,1.655-1.22,2.558-1.855
			c0.903-0.635,1.855-1.153,2.858-1.555s2.039-0.652,3.109-0.753c1.069-0.1,2.172,0.051,3.31,0.452
			c0.802,0.2,1.47,0.602,2.006,1.203c0.534,0.602,0.968,1.304,1.304,2.106c0.334,1.271,0.234,2.843-0.301,4.714
			c-0.536,1.873-1.555,4.162-3.059,6.871c-1.504,2.708-3.528,5.867-6.068,9.478c-2.542,3.611-5.651,7.758-9.328,12.438
			c-0.335,0.268-0.687,0.501-1.053,0.702C133.462,389.703,133.111,389.803,132.777,389.803z M151.232,389.803
			c-1.271,0-2.156-0.251-2.658-0.752c-0.501-0.502-0.82-0.919-0.953-1.254c-0.737-1.537-0.418-3.394,0.953-5.566
			c1.37-2.173,3.761-5.332,7.171-9.479c1.47-1.738,2.892-3.461,4.263-5.166c1.37-1.705,2.624-3.359,3.761-4.965
			c1.337-1.871,2.122-3.242,2.357-4.111c0.234-0.869,0.351-1.438,0.351-1.705h-0.1c-1.003-0.267-2.106-0.066-3.31,0.602
			c-1.204,0.669-2.675,1.604-4.413,2.809c-0.536,0.4-1.153,0.551-1.855,0.451c-0.702-0.101-1.288-0.451-1.755-1.054
			c-0.401-0.534-0.552-1.187-0.451-1.955c0.1-0.769,0.451-1.32,1.053-1.655c1.738-1.27,3.593-2.423,5.566-3.461
			c1.972-1.035,4.128-1.286,6.469-0.752c1.27,0.336,2.172,0.87,2.708,1.604c0.535,0.737,0.868,1.305,1.003,1.705
			c0.803,2.342,0.116,5.166-2.056,8.476c-2.174,3.311-5.333,7.473-9.479,12.487c-1.07,1.339-2.207,2.743-3.41,4.213
			c-1.204,1.472-2.174,2.775-2.909,3.911c1.136-0.4,2.39-0.936,3.761-1.604c1.37-0.668,2.741-1.404,4.112-2.206
			c1.37-0.803,2.673-1.605,3.912-2.407c1.236-0.803,2.257-1.471,3.059-2.007l1.605-1.103c0.667-0.401,1.354-0.518,2.056-0.352
			c0.702,0.168,1.219,0.519,1.555,1.054c0.401,0.602,0.517,1.253,0.351,1.955c-0.168,0.702-0.519,1.254-1.053,1.655
			c-0.268,0.201-0.536,0.368-0.803,0.502c-0.268,0.135-0.536,0.335-0.802,0.602c-1.74,1.138-3.51,2.273-5.316,3.41
			c-1.805,1.138-3.578,2.156-5.316,3.059c-1.739,0.903-3.41,1.64-5.015,2.207C154.041,389.52,152.569,389.803,151.232,389.803z"/>
		<path fill="#FFFFFF" d="M201.782,398.228h-42.527c-0.735,0-1.37-0.25-1.906-0.752c-0.534-0.501-0.802-1.12-0.802-1.855
			c0-0.736,0.268-1.371,0.802-1.905c0.536-0.536,1.171-0.803,1.906-0.803h42.527c0.735,0,1.354,0.267,1.855,0.803
			c0.501,0.534,0.752,1.169,0.752,1.905c0,0.735-0.251,1.354-0.752,1.855C203.136,397.978,202.518,398.228,201.782,398.228z
			 M185.734,389.803c-2.475,0-4.448-0.635-5.917-1.905c-0.536-0.468-1.038-1.104-1.504-1.906c-0.469-0.803-0.702-1.938-0.702-3.41
			c0-2.407,0.818-5.266,2.457-8.575c1.638-3.311,3.761-6.786,6.369-10.432c2.608-3.644,5.532-7.321,8.776-11.033
			c3.242-3.711,6.435-7.137,9.579-10.28c3.275-3.275,6.803-6.569,10.582-9.88c3.777-3.31,7.538-6.269,11.284-8.876
			c3.744-2.607,7.337-4.729,10.782-6.369c3.443-1.638,6.502-2.457,9.177-2.457c3.611,0,5.683,1.17,6.219,3.51
			c0.333,1.271,0.016,2.743-0.953,4.414c-0.97,1.672-2.725,3.645-5.266,5.917c-1.74,1.539-3.812,3.194-6.219,4.965
			c-2.407,1.772-5.115,3.729-8.124,5.868c-2.608,1.805-5.166,3.545-7.673,5.215c-2.508,1.673-4.764,3.127-6.771,4.363
			c-2.006,1.238-3.628,2.241-4.864,3.009c-1.238,0.77-1.89,1.153-1.956,1.153c-0.536,0.336-1.153,0.452-1.855,0.352
			s-1.221-0.484-1.555-1.153c-0.335-0.603-0.451-1.254-0.351-1.956c0.101-0.702,0.484-1.22,1.154-1.555
			c0.065,0,0.667-0.352,1.805-1.053c1.136-0.702,2.641-1.655,4.514-2.859c1.871-1.203,3.978-2.573,6.319-4.112
			c2.34-1.537,4.714-3.175,7.121-4.914c3.611-2.474,6.62-4.614,9.027-6.419c2.407-1.806,4.329-3.326,5.767-4.564
			c1.438-1.236,2.508-2.256,3.21-3.059s1.153-1.438,1.354-1.906h-0.903c-1.805,0-4.08,0.619-6.82,1.856
			c-2.743,1.237-5.785,2.993-9.127,5.266c-3.344,2.273-6.905,5.015-10.682,8.225c-3.779,3.209-7.573,6.754-11.384,10.631
			c-3.746,3.746-7.188,7.473-10.331,11.184c-3.144,3.711-5.868,7.188-8.174,10.432c-2.307,3.244-4.097,6.168-5.366,8.776
			c-1.271,2.607-1.906,4.714-1.906,6.318c0,0.536,0.05,0.887,0.15,1.054c0.101,0.167,0.216,0.285,0.351,0.351
			c0.334,0.401,1.136,0.602,2.407,0.602c2.809,0,5.683-0.752,8.626-2.257c2.941-1.504,5.817-3.66,8.625-6.469
			c2.674-2.741,4.68-5.382,6.018-7.924c1.337-2.54,2.006-4.479,2.006-5.817c0-0.668-0.1-1.003-0.301-1.003h-0.201
			c-0.067,0-0.15-0.016-0.25-0.05c-0.101-0.033-0.218-0.051-0.351-0.051c-0.669,0-1.504,0.301-2.508,0.903
			c-1.003,0.602-2.073,1.504-3.209,2.708c-1.338,1.472-2.324,2.993-2.959,4.563c-0.636,1.571-0.853,2.893-0.652,3.962
			c0.133,0.736-0.017,1.389-0.451,1.955c-0.436,0.569-1.02,0.92-1.755,1.054c-0.736,0.135-1.371-0.016-1.906-0.451
			c-0.536-0.435-0.87-1.019-1.003-1.756c-0.335-2.272,0.033-4.546,1.104-6.82c1.069-2.272,2.34-4.178,3.811-5.717
			c1.47-1.738,3.009-3.092,4.614-4.063c1.605-0.968,3.243-1.454,4.915-1.454c1.204,0,2.172,0.186,2.909,0.552
			c0.735,0.368,1.269,0.72,1.604,1.053c0.401,0.536,0.768,1.139,1.104,1.806c0.334,0.669,0.501,1.604,0.501,2.809
			c0,2.342-0.837,5.065-2.507,8.175c-1.672,3.108-3.979,6.168-6.921,9.177c-0.937,0.938-2.106,2.006-3.51,3.21
			c-1.404,1.203-3.009,2.341-4.814,3.41c-1.806,1.07-3.761,1.956-5.868,2.658S188.074,389.803,185.734,389.803z"/>
		<path fill="#FFFFFF" d="M234.781,398.228h-32.999c-0.735,0-1.37-0.25-1.906-0.752c-0.534-0.501-0.802-1.12-0.802-1.855
			c0-0.736,0.268-1.371,0.802-1.905c0.536-0.536,1.171-0.803,1.906-0.803h32.999c0.735,0,1.337,0.267,1.805,0.803
			c0.467,0.534,0.702,1.169,0.702,1.905c0,0.735-0.235,1.354-0.702,1.855C236.118,397.978,235.516,398.228,234.781,398.228z
			 M225.453,389.803c-2.342,0-4.18-0.567-5.517-1.705c-0.536-0.467-1.038-1.104-1.504-1.905c-0.469-0.803-0.702-1.839-0.702-3.109
			c0-2.34,0.853-5.166,2.558-8.476s3.895-6.803,6.569-10.481c2.674-3.677,5.667-7.372,8.977-11.083
			c3.31-3.711,6.569-7.137,9.779-10.28c1.069-1.069,2.54-2.523,4.413-4.363c1.871-1.839,4.012-3.794,6.419-5.868
			c2.407-2.071,4.965-4.162,7.673-6.269c2.708-2.106,5.449-4.027,8.225-5.767c2.774-1.738,5.482-3.143,8.125-4.213
			c2.641-1.068,5.065-1.604,7.271-1.604c1.872,0,3.192,0.335,3.962,1.003c0.768,0.669,1.32,1.371,1.655,2.106
			c0.401,1.604-0.017,3.478-1.253,5.616c-1.238,2.141-3.628,4.949-7.171,8.426c-2.207,2.206-4.932,4.698-8.175,7.472
			c-3.244,2.775-6.971,5.835-11.183,9.178c-3.545,2.876-7.038,5.634-10.481,8.274c-3.444,2.643-6.537,4.965-9.278,6.971
			c-2.742,2.006-5.817,4.247-9.228,6.721c-0.536,0.335-1.17,0.451-1.905,0.351c-0.737-0.101-1.304-0.451-1.705-1.053
			c-0.469-0.535-0.637-1.17-0.502-1.906c0.133-0.734,0.502-1.304,1.104-1.705c3.209-2.272,6.118-4.363,8.726-6.269
			s5.566-4.128,8.876-6.67c3.31-2.54,6.67-5.181,10.08-7.924c5.482-4.278,9.913-7.906,13.29-10.882
			c3.376-2.975,6.034-5.467,7.974-7.473c1.938-2.006,3.31-3.561,4.112-4.664c0.802-1.104,1.304-1.889,1.504-2.357h-0.401
			c-1.805,0-4.097,0.637-6.871,1.906c-2.775,1.271-5.852,3.076-9.228,5.416c-3.377,2.342-6.988,5.133-10.832,8.375
			c-3.846,3.244-7.708,6.838-11.584,10.782c-3.812,3.812-7.322,7.557-10.532,11.233c-3.209,3.679-5.985,7.156-8.325,10.432
			c-2.341,3.276-4.163,6.202-5.466,8.775c-1.304,2.575-1.956,4.664-1.956,6.27c0,0.335,0.133,0.702,0.401,1.103
			c0.066,0.067,0.25,0.15,0.552,0.251c0.301,0.101,0.818,0.15,1.555,0.15c0.936,0,2.239-0.316,3.912-0.952
			c1.67-0.635,3.46-1.438,5.366-2.407c1.906-0.969,3.827-2.022,5.768-3.16c1.938-1.136,3.644-2.206,5.115-3.209
			c0.534-0.401,1.136-0.518,1.805-0.352c0.667,0.168,1.27,0.519,1.806,1.054c0.333,0.602,0.417,1.253,0.25,1.955
			c-0.167,0.702-0.519,1.254-1.053,1.655c-0.669,0.469-1.94,1.288-3.811,2.457c-1.873,1.171-3.962,2.357-6.269,3.561
			c-2.307,1.204-4.631,2.274-6.971,3.21C229.029,389.336,227.058,389.803,225.453,389.803z"/>
		<path fill="#FFFFFF" d="M270.487,398.228H234.78c-0.735,0-1.354-0.25-1.855-0.752c-0.501-0.501-0.752-1.12-0.752-1.855
			c0-0.736,0.251-1.371,0.752-1.905c0.501-0.536,1.121-0.803,1.855-0.803h35.707c0.735,0,1.37,0.267,1.906,0.803
			c0.534,0.534,0.802,1.169,0.802,1.905c0,0.735-0.268,1.354-0.802,1.855C271.856,397.978,271.222,398.228,270.487,398.228z
			 M258.25,390.305c-0.669,0-1.304-0.067-1.906-0.201c-0.602-0.135-1.204-0.301-1.806-0.501c-1.338-0.535-2.391-1.337-3.159-2.407
			c-0.77-1.069-1.221-2.272-1.354-3.611c-0.135-2.006,0.417-4.212,1.655-6.619c1.237-2.407,2.824-4.765,4.764-7.071
			c1.939-2.308,4.112-4.479,6.52-6.52c2.407-2.039,4.68-3.727,6.82-5.065c5.75-3.343,10.13-4.012,13.139-2.006
			c0.535,0.268,1.104,0.87,1.705,1.806c0.602,0.937,0.635,2.273,0.101,4.012c-0.469,1.539-1.489,3.327-3.059,5.366
			c-1.572,2.04-3.41,3.962-5.517,5.767c-2.106,1.806-4.363,3.327-6.77,4.564s-4.648,1.855-6.72,1.855
			c-0.602,0-1.153-0.251-1.655-0.753c-0.501-0.501-0.752-1.118-0.752-1.855c0-0.734,0.251-1.337,0.752-1.805
			s1.053-0.702,1.655-0.702c0.868,0,1.855-0.217,2.959-0.652c1.103-0.435,2.256-1.019,3.46-1.755
			c1.204-0.735,2.423-1.621,3.661-2.658c1.236-1.036,2.39-2.156,3.46-3.36c1.204-1.404,2.089-2.573,2.658-3.511
			c0.567-0.936,0.886-1.67,0.953-2.206c-0.602-0.133-1.522-0.016-2.758,0.351c-1.238,0.369-2.726,1.054-4.463,2.057
			c-2.207,1.338-4.363,2.926-6.469,4.764c-2.106,1.84-3.979,3.712-5.617,5.617c-1.64,1.905-2.943,3.762-3.912,5.566
			c-0.97,1.806-1.421,3.311-1.354,4.514c0,0.335,0.083,0.637,0.251,0.902c0.166,0.269,0.517,0.469,1.053,0.603
			c1.069,0.468,2.523,0.501,4.363,0.1c1.838-0.4,3.862-1.103,6.068-2.105c2.207-1.004,4.513-2.189,6.92-3.562
			c2.407-1.369,4.68-2.823,6.82-4.362c0.735-0.401,1.438-0.535,2.106-0.401c0.667,0.135,1.169,0.501,1.504,1.104
			c0.535,0.602,0.735,1.253,0.602,1.955c-0.135,0.702-0.469,1.222-1.003,1.555c-1.338,0.938-3.043,2.041-5.116,3.311
			c-2.073,1.271-4.28,2.491-6.62,3.66c-2.341,1.171-4.731,2.174-7.171,3.01C262.579,389.886,260.322,390.305,258.25,390.305z"/>
		<path fill="#FFFFFF" d="M319.933,407.958c-2.808,0-5.25-0.386-7.322-1.153c-2.073-0.77-3.778-1.806-5.115-3.109
			c-1.338-1.304-2.324-2.775-2.959-4.413c-0.636-1.64-0.953-3.327-0.953-5.065c0-1.94,0.434-3.896,1.304-5.867
			c0.868-1.972,2.072-3.727,3.611-5.266c1.738-1.738,3.777-3.06,6.118-3.962c2.34-0.903,4.814-1.354,7.422-1.354
			c4.346,0,7.957,1.054,10.833,3.159c2.874,2.106,4.747,4.899,5.617,8.375c0.133,0.668,0.016,1.32-0.351,1.956
			c-0.368,0.635-0.92,1.019-1.655,1.153c-0.736,0.134-1.404,0.016-2.006-0.351c-0.602-0.368-0.97-0.887-1.103-1.555
			c-0.401-1.738-1.121-3.092-2.157-4.063c-1.037-0.968-2.141-1.705-3.31-2.206c-1.171-0.502-2.292-0.818-3.36-0.953
			c-1.07-0.133-1.906-0.2-2.507-0.2c-2.141,0-4.029,0.335-5.667,1.003c-1.639,0.669-3.009,1.521-4.112,2.558
			c-1.103,1.037-1.956,2.224-2.558,3.561c-0.602,1.337-0.903,2.674-0.903,4.012c0,1.003,0.201,2.021,0.602,3.06
			c0.401,1.035,1.036,1.971,1.906,2.808c0.868,0.836,2.006,1.505,3.41,2.007c1.404,0.501,3.142,0.752,5.215,0.752
			c9.762,0,21.765-9.328,36.008-27.983c0.401-0.535,0.953-0.868,1.655-1.003c0.702-0.134,1.354,0.034,1.956,0.501
			c0.534,0.469,0.868,1.038,1.003,1.705c0.133,0.669,0,1.304-0.401,1.906c-7.823,10.23-15.012,17.785-21.564,22.667
			C332.035,405.516,325.816,407.958,319.933,407.958z M382.621,371.85H342.3c-0.736,0-1.354-0.234-1.855-0.702
			s-0.752-1.036-0.752-1.705c0-0.735,0.25-1.354,0.752-1.856c0.501-0.501,1.119-0.752,1.855-0.752h40.321
			c0.735,0,1.336,0.251,1.805,0.752c0.467,0.502,0.702,1.121,0.702,1.856c0,0.669-0.235,1.237-0.702,1.705
			C383.957,371.616,383.355,371.85,382.621,371.85z M361.758,343.666c-1.806,0-3.578-0.217-5.316-0.652
			c-1.74-0.434-3.478-1.118-5.216-2.056c-0.602-0.334-1.003-0.836-1.204-1.505c-0.201-0.667-0.135-1.304,0.201-1.905
			c0.334-0.668,0.835-1.104,1.504-1.304c0.668-0.201,1.337-0.134,2.006,0.2c1.67,0.938,3.36,1.539,5.065,1.806
			c1.705,0.268,3.476,0.301,5.316,0.1c1.838-0.2,3.761-0.617,5.767-1.253c2.006-0.635,4.178-1.455,6.52-2.458
			c0.667-0.333,1.319-0.366,1.956-0.1c0.634,0.268,1.119,0.702,1.454,1.304c0.534,1.672,0.066,2.843-1.404,3.511
			c-3.009,1.338-5.902,2.391-8.676,3.159C366.957,343.282,364.298,343.666,361.758,343.666z M367.676,365.129
			c-0.335,0-0.619-0.065-0.853-0.2c-0.235-0.134-0.451-0.267-0.652-0.401c-0.602-0.401-0.97-0.953-1.104-1.655
			c-0.135-0.702,0.033-1.354,0.501-1.956c0.334-0.4,0.685-0.868,1.053-1.403c0.367-0.535,0.718-1.069,1.053-1.605
			c1.605-2.139,3.343-4.496,5.215-7.071c1.872-2.573,3.727-5.08,5.567-7.522c1.838-2.439,3.611-4.714,5.316-6.82
			c1.705-2.105,3.192-3.761,4.463-4.965c0.534-0.467,1.136-0.702,1.805-0.702c0.667,0,1.27,0.235,1.806,0.702
			c0.534,0.536,0.802,1.154,0.802,1.855c0,0.702-0.268,1.289-0.802,1.756c-1.138,1.203-2.542,2.843-4.213,4.914
			c-1.672,2.074-3.444,4.331-5.316,6.771c-1.873,2.441-3.711,4.899-5.516,7.372c-1.806,2.475-3.445,4.714-4.915,6.72
			c-0.736,1.204-1.438,2.207-2.106,3.01C369.18,364.728,368.478,365.129,367.676,365.129z M387.635,398.228
			c-1.94,0-3.561-0.451-4.864-1.354c-1.304-0.903-2.124-2.224-2.458-3.962c-0.536-1.873-0.385-4.178,0.451-6.921
			c0.835-2.741,2.039-5.667,3.611-8.776c1.57-3.109,3.393-6.284,5.466-9.528c2.072-3.242,4.112-6.302,6.119-9.177
			c2.072-2.809,4.263-5.683,6.569-8.626c2.307-2.941,4.58-5.683,6.82-8.225c2.24-2.541,4.329-4.747,6.269-6.62
			c1.938-1.871,3.576-3.142,4.915-3.812c0.667-0.401,1.337-0.517,2.005-0.351c0.668,0.168,1.17,0.586,1.506,1.254
			c0.332,0.669,0.416,1.338,0.25,2.006c-0.168,0.669-0.586,1.171-1.254,1.504c-0.803,0.469-2.006,1.455-3.611,2.959
			c-1.604,1.505-3.444,3.395-5.516,5.667c-2.074,2.274-4.28,4.882-6.62,7.823c-2.341,2.943-4.714,6.086-7.121,9.429
			c-3.076,4.347-5.617,8.209-7.623,11.584c-2.006,3.378-3.595,6.304-4.765,8.776c-1.17,2.475-1.956,4.531-2.357,6.169
			c-0.401,1.639-0.501,2.858-0.301,3.66c0.133,0.267,0.334,0.535,0.602,0.803c0.267,0.267,0.903,0.401,1.906,0.401
			c0.735,0,1.354,0.267,1.855,0.803c0.501,0.534,0.752,1.169,0.752,1.905c0,0.735-0.251,1.354-0.752,1.855
			C388.989,397.978,388.371,398.228,387.635,398.228z"/>
		<path fill="#FFFFFF" d="M433.371,398.228h-45.736c-0.735,0-1.354-0.25-1.855-0.752c-0.501-0.501-0.752-1.12-0.752-1.855
			c0-0.736,0.251-1.371,0.752-1.905c0.501-0.536,1.121-0.803,1.855-0.803h45.736c0.736,0,1.371,0.267,1.906,0.803
			c0.535,0.534,0.803,1.169,0.803,1.905c0,0.735-0.268,1.354-0.803,1.855C434.742,397.978,434.107,398.228,433.371,398.228z
			 M406.592,389.803c-1.604,0-2.808-0.467-3.611-1.404c-2.675-2.874-0.77-7.889,5.717-15.045l5.416-5.817
			c0.802-0.868,1.671-1.806,2.608-2.809c0.936-1.003,1.855-2.006,2.758-3.009c0.902-1.003,1.721-1.938,2.457-2.809
			c0.734-0.868,1.338-1.638,1.805-2.307h-0.602c-0.736,0.135-1.388,0-1.955-0.401c-0.569-0.401-0.92-0.968-1.053-1.705
			c-0.135-0.734,0.016-1.387,0.451-1.956c0.434-0.566,1.019-0.918,1.756-1.053c0.266,0,0.701-0.033,1.303-0.101
			c0.602-0.065,1.236-0.05,1.906,0.051c0.668,0.1,1.303,0.301,1.906,0.602c0.602,0.301,1.102,0.819,1.504,1.555
			c0.467,0.938,0.584,1.923,0.352,2.959c-0.236,1.037-0.838,2.241-1.807,3.61c-0.969,1.371-2.24,2.959-3.811,4.765
			c-1.572,1.805-3.461,3.879-5.667,6.219c-1.003,0.937-1.973,1.872-2.909,2.808c-0.937,0.938-1.772,1.873-2.507,2.809
			c-1.94,2.207-3.294,3.912-4.062,5.115c-0.77,1.204-1.221,2.106-1.354,2.708c0.735-0.133,1.905-0.567,3.51-1.304
			c1.605-0.735,3.711-2.106,6.319-4.112c0.602-0.401,1.254-0.534,1.956-0.401c0.702,0.135,1.253,0.469,1.655,1.003
			c0.534,0.603,0.718,1.254,0.552,1.956c-0.168,0.702-0.519,1.254-1.053,1.655c-0.737,0.536-1.639,1.171-2.708,1.905
			c-1.07,0.736-2.224,1.438-3.46,2.106c-1.238,0.669-2.507,1.238-3.812,1.705C408.849,389.57,407.661,389.803,406.592,389.803z
			 M425.248,389.803c-1.338,0-2.242-0.301-2.709-0.902c-0.469-0.603-0.769-1.069-0.902-1.404c-0.268-0.534-0.401-1.204-0.401-2.006
			c0-0.803,0.367-1.956,1.104-3.461c0.734-1.504,1.988-3.476,3.76-5.917c1.771-2.44,4.297-5.532,7.572-9.278
			c1.605-1.871,3.211-3.677,4.814-5.416c1.605-1.738,3.043-3.275,4.314-4.613c1.27-1.337,2.707-2.842,4.313-4.514
			c0.533-0.535,1.137-0.803,1.805-0.803s1.27,0.268,1.805,0.803c0.535,0.469,0.803,1.053,0.803,1.755s-0.234,1.321-0.701,1.855
			c-1.473,1.472-2.793,2.826-3.963,4.063c-1.17,1.238-2.49,2.657-3.961,4.263c-1.473,1.604-2.943,3.31-4.414,5.115
			c-1.939,2.141-3.576,4.046-4.914,5.717c-1.338,1.672-2.457,3.109-3.359,4.313c-0.902,1.203-1.623,2.206-2.156,3.009
			c-0.537,0.802-0.938,1.438-1.205,1.905c1.205-0.267,2.541-0.752,4.014-1.454c1.469-0.702,2.924-1.454,4.361-2.257
			s2.791-1.62,4.063-2.457c1.27-0.836,2.34-1.555,3.211-2.157c0.266-0.266,0.533-0.467,0.801-0.602
			c0.268-0.133,0.535-0.301,0.803-0.501c0.535-0.401,1.17-0.518,1.906-0.352c0.734,0.168,1.303,0.519,1.705,1.054
			c0.334,0.602,0.434,1.253,0.301,1.955c-0.135,0.702-0.469,1.254-1.004,1.655c-0.268,0.201-0.535,0.368-0.801,0.502
			c-0.27,0.135-0.537,0.335-0.803,0.602c-1.74,1.138-3.527,2.273-5.367,3.41c-1.84,1.138-3.627,2.156-5.365,3.059
			c-1.74,0.903-3.428,1.64-5.064,2.207C427.971,389.52,426.518,389.803,425.248,389.803z"/>
		<path fill="#FFFFFF" d="M475.898,398.228h-42.527c-0.734,0-1.369-0.25-1.904-0.752c-0.535-0.501-0.803-1.12-0.803-1.855
			c0-0.736,0.268-1.371,0.803-1.905c0.535-0.536,1.17-0.803,1.904-0.803h42.527c0.734,0,1.354,0.267,1.855,0.803
			c0.502,0.534,0.752,1.169,0.752,1.905c0,0.735-0.25,1.354-0.752,1.855C477.252,397.978,476.633,398.228,475.898,398.228z
			 M459.852,389.803c-2.475,0-4.449-0.635-5.918-1.905c-0.537-0.468-1.039-1.104-1.506-1.906c-0.469-0.803-0.701-1.938-0.701-3.41
			c0-2.407,0.818-5.266,2.457-8.575c1.639-3.311,3.762-6.786,6.369-10.432c2.607-3.644,5.531-7.321,8.775-11.033
			c3.244-3.711,6.436-7.137,9.58-10.28c3.275-3.275,6.803-6.569,10.58-9.88c3.777-3.31,7.539-6.269,11.285-8.876
			c3.744-2.607,7.338-4.729,10.781-6.369c3.443-1.638,6.502-2.457,9.178-2.457c3.611,0,5.682,1.17,6.219,3.51
			c0.334,1.271,0.016,2.743-0.953,4.414c-0.971,1.672-2.725,3.645-5.266,5.917c-1.74,1.539-3.811,3.194-6.219,4.965
			c-2.406,1.772-5.115,3.729-8.125,5.868c-2.607,1.805-5.164,3.545-7.672,5.215c-2.508,1.673-4.764,3.127-6.77,4.363
			c-2.006,1.238-3.629,2.241-4.865,3.009c-1.238,0.77-1.891,1.153-1.955,1.153c-0.537,0.336-1.154,0.452-1.855,0.352
			c-0.703-0.101-1.223-0.484-1.555-1.153c-0.336-0.603-0.453-1.254-0.352-1.956c0.1-0.702,0.484-1.22,1.152-1.555
			c0.066,0,0.668-0.352,1.807-1.053c1.135-0.702,2.641-1.655,4.514-2.859c1.871-1.203,3.977-2.573,6.318-4.112
			c2.34-1.537,4.715-3.175,7.121-4.914c3.611-2.474,6.619-4.614,9.027-6.419c2.406-1.806,4.328-3.326,5.768-4.564
			c1.436-1.236,2.506-2.256,3.209-3.059c0.701-0.803,1.152-1.438,1.354-1.906h-0.902c-1.805,0-4.08,0.619-6.82,1.856
			c-2.742,1.237-5.785,2.993-9.127,5.266c-3.344,2.273-6.906,5.015-10.682,8.225c-3.779,3.209-7.572,6.754-11.385,10.631
			c-3.746,3.746-7.188,7.473-10.33,11.184c-3.145,3.711-5.867,7.188-8.176,10.432c-2.307,3.244-4.096,6.168-5.365,8.776
			c-1.271,2.607-1.906,4.714-1.906,6.318c0,0.536,0.051,0.887,0.15,1.054c0.102,0.167,0.217,0.285,0.352,0.351
			c0.334,0.401,1.137,0.602,2.408,0.602c2.807,0,5.682-0.752,8.625-2.257c2.941-1.504,5.816-3.66,8.625-6.469
			c2.674-2.741,4.68-5.382,6.02-7.924c1.336-2.54,2.006-4.479,2.006-5.817c0-0.668-0.102-1.003-0.301-1.003h-0.201
			c-0.068,0-0.15-0.016-0.252-0.05c-0.1-0.033-0.217-0.051-0.35-0.051c-0.67,0-1.506,0.301-2.508,0.903
			c-1.004,0.602-2.074,1.504-3.209,2.708c-1.34,1.472-2.324,2.993-2.959,4.563c-0.637,1.571-0.854,2.893-0.652,3.962
			c0.133,0.736-0.018,1.389-0.451,1.955c-0.436,0.569-1.021,0.92-1.756,1.054c-0.736,0.135-1.371-0.016-1.906-0.451
			c-0.535-0.435-0.869-1.019-1.002-1.756c-0.336-2.272,0.033-4.546,1.104-6.82c1.068-2.272,2.34-4.178,3.811-5.717
			c1.471-1.738,3.01-3.092,4.613-4.063c1.605-0.968,3.244-1.454,4.916-1.454c1.203,0,2.172,0.186,2.908,0.552
			c0.734,0.368,1.27,0.72,1.605,1.053c0.4,0.536,0.768,1.139,1.102,1.806c0.334,0.669,0.502,1.604,0.502,2.809
			c0,2.342-0.836,5.065-2.508,8.175c-1.672,3.108-3.979,6.168-6.92,9.177c-0.938,0.938-2.105,2.006-3.51,3.21
			c-1.404,1.203-3.01,2.341-4.814,3.41c-1.807,1.07-3.762,1.956-5.867,2.658C464.414,389.453,462.191,389.803,459.852,389.803z"/>
		<path fill="#FFFFFF" d="M530.461,408.86c-6.889,0-12.203-1.772-15.947-5.315c-1.74-1.539-3.045-3.311-3.912-5.316
			c-0.869-2.006-1.305-4.18-1.305-6.52c0-1.938,0.316-3.877,0.953-5.817c0.635-1.938,1.555-3.676,2.758-5.215
			c1.205-1.538,2.674-2.774,4.414-3.711c1.738-0.937,3.711-1.404,5.918-1.404c1.67,0,3.191,0.185,4.563,0.552
			c1.371,0.368,2.658,0.869,3.861,1.504c1.205,0.637,2.391,1.389,3.561,2.257c1.17,0.87,2.357,1.772,3.563,2.708
			c1.537,1.138,3.174,2.357,4.914,3.661c1.738,1.304,3.844,2.658,6.318,4.063c0.602,0.333,0.969,0.853,1.104,1.554
			c0.133,0.702,0.033,1.388-0.301,2.057c-0.268,0.534-0.736,0.886-1.404,1.053c-0.67,0.167-1.305,0.083-1.906-0.25
			c-2.674-1.472-4.949-2.894-6.82-4.263c-1.873-1.37-3.578-2.624-5.115-3.762c-1.137-0.868-2.191-1.671-3.158-2.407
			c-0.971-0.735-1.924-1.354-2.859-1.855c-0.938-0.501-1.906-0.886-2.908-1.153c-1.004-0.267-2.141-0.401-3.41-0.401
			c-1.34,0-2.559,0.318-3.662,0.953c-1.104,0.636-2.039,1.454-2.809,2.457s-1.354,2.156-1.754,3.461
			c-0.402,1.304-0.602,2.623-0.602,3.961c0,1.538,0.301,3.01,0.902,4.414c0.602,1.403,1.438,2.641,2.508,3.711
			c2.74,2.54,6.92,3.812,12.537,3.812c5.883,0,10.998-1.054,15.346-3.16c4.346-2.106,7.488-5.1,9.428-8.977
			c1.738-3.41,2.289-7.071,1.654-10.982c-0.635-3.912-2.457-7.874-5.465-11.886c-3.211-4.213-5.133-8.592-5.768-13.14
			c-0.637-4.546,0.051-8.792,2.057-12.737c1.871-3.677,4.695-6.586,8.475-8.727c3.777-2.139,8.174-3.21,13.189-3.21
			c3.611,0,6.721,0.737,9.328,2.207c2.607,1.472,4.514,3.511,5.717,6.118c1.137,2.676,1.369,5.534,0.701,8.576
			c-0.668,3.043-2.072,5.767-4.211,8.174c-0.738,0.736-1.756,1.572-3.061,2.508c-1.303,0.937-2.943,1.722-4.914,2.356
			c-1.973,0.637-4.313,0.971-7.021,1.003c-2.707,0.035-5.768-0.517-9.178-1.654c-0.602-0.334-1.053-0.818-1.354-1.454
			c-0.301-0.635-0.385-1.287-0.25-1.956c0.266-0.735,0.734-1.236,1.404-1.505c0.668-0.267,1.336-0.301,2.006-0.101
			c3.811,1.339,7.338,1.756,10.582,1.254c3.242-0.501,5.832-1.855,7.771-4.062c1.605-1.605,2.641-3.426,3.109-5.467
			c0.467-2.039,0.334-3.895-0.4-5.566c-0.736-1.738-1.99-3.024-3.762-3.861c-1.771-0.836-3.928-1.254-6.469-1.254
			c-4.012,0-7.508,0.77-10.48,2.307c-2.977,1.539-5.201,3.778-6.67,6.721c-1.539,3.009-2.008,6.303-1.404,9.879
			c0.602,3.578,2.172,7.071,4.713,10.481c3.477,4.814,5.617,9.696,6.42,14.644c0.803,4.949,0.133,9.528-2.006,13.741
			c-2.408,4.68-6.203,8.341-11.385,10.982C543.383,407.539,537.348,408.86,530.461,408.86z"/>
		<path fill="#FFFFFF" d="M562.457,412.471c-0.201,0-0.436-0.051-0.703-0.15c-0.266-0.101-0.502-0.218-0.701-0.352
			c-0.602-0.536-0.953-1.138-1.055-1.806c-0.1-0.669,0.051-1.271,0.453-1.805l38.414-52.958c0.4-0.535,0.953-0.886,1.654-1.054
			c0.703-0.166,1.354,0.018,1.957,0.552c0.602,0.336,0.951,0.87,1.053,1.604c0.1,0.737-0.051,1.404-0.451,2.007l-38.416,52.857
			C564.061,412.103,563.326,412.471,562.457,412.471z M604.182,398.228h-22.568c-0.67,0-1.238-0.25-1.705-0.752
			c-0.469-0.501-0.701-1.12-0.701-1.855c0-0.736,0.232-1.371,0.701-1.905c0.467-0.536,1.035-0.803,1.705-0.803h22.568
			c0.734,0,1.354,0.267,1.855,0.803c0.5,0.534,0.752,1.169,0.752,1.905c0,0.735-0.252,1.354-0.752,1.855
			C605.535,397.978,604.916,398.228,604.182,398.228z M594.752,389.803c-0.936,0-1.822-0.2-2.656-0.602
			c-0.838-0.401-1.523-0.969-2.057-1.705c-1.203-1.938-1.404-4.213-0.602-6.82c0.266-0.735,0.701-1.27,1.303-1.605
			c0.602-0.333,1.203-0.333,1.807,0c0.734,0.269,1.27,0.702,1.604,1.305c0.334,0.602,0.402,1.271,0.201,2.006
			c-0.201,0.536-0.301,0.987-0.301,1.354c0,0.368,0.066,0.619,0.201,0.753c0.064,0,0.115,0.017,0.15,0.05
			c0.031,0.034,0.15,0.05,0.35,0.05c0.869,0,1.871-0.316,3.01-0.952c1.137-0.635,2.34-1.521,3.611-2.658
			c1.27-1.137,2.572-2.49,3.91-4.063c1.338-1.57,2.609-3.292,3.813-5.165c1.938-3.009,3.26-5.517,3.961-7.522
			c0.703-2.006,1.02-3.343,0.953-4.012c-1.137,0-2.357,0.385-3.66,1.153c-1.305,0.77-2.324,1.488-3.059,2.156
			c-0.537,0.469-1.172,0.669-1.906,0.602c-0.736-0.065-1.305-0.366-1.705-0.902c-0.537-0.535-0.787-1.169-0.752-1.906
			c0.033-0.734,0.35-1.304,0.953-1.705c0.133-0.133,0.5-0.451,1.102-0.952c0.604-0.502,1.371-1.02,2.309-1.555
			c0.936-0.535,1.988-1.019,3.158-1.455c1.17-0.434,2.357-0.651,3.561-0.651c1.137,0,2.006,0.185,2.607,0.552
			c0.604,0.368,1.004,0.752,1.205,1.153c0.533,0.401,0.902,0.937,1.104,1.604c0.199,0.669,0.301,1.371,0.301,2.106
			c0,1.271-0.252,2.675-0.754,4.213c-0.5,1.539-1.152,3.109-1.955,4.714s-1.705,3.159-2.707,4.664
			c-1.004,1.504-1.975,2.893-2.91,4.162c-0.803,1.07-1.805,2.274-3.008,3.61c-1.205,1.339-2.508,2.608-3.912,3.812
			c-1.404,1.204-2.893,2.207-4.463,3.01C597.945,389.402,596.357,389.803,594.752,389.803z"/>
		<path fill="#FFFFFF" d="M641.191,398.228H604.18c-0.734,0-1.354-0.25-1.855-0.752c-0.502-0.501-0.752-1.12-0.752-1.855
			c0-0.736,0.25-1.371,0.752-1.905c0.502-0.536,1.121-0.803,1.855-0.803h37.012c0.734,0,1.354,0.267,1.855,0.803
			c0.5,0.534,0.752,1.169,0.752,1.905c0,0.735-0.252,1.354-0.752,1.855C642.545,397.978,641.926,398.228,641.191,398.228z
			 M629.455,389.803c-3.143,0-5.516-1.27-7.121-3.812c-1.07-2.071-1.303-4.546-0.701-7.422c0.602-2.874,1.971-5.951,4.111-9.228
			c1.605-2.474,3.393-4.765,5.367-6.871c1.971-2.105,3.994-3.894,6.066-5.365c2.072-1.471,4.146-2.624,6.219-3.461
			c2.072-0.835,4.014-1.254,5.818-1.254c2.139,0,4.012,0.587,5.617,1.756c1.604,1.171,2.773,2.793,3.51,4.864
			c0.266,0.669,0.234,1.304-0.1,1.905c-0.336,0.603-0.871,1.071-1.605,1.404c-0.67,0.269-1.305,0.251-1.906-0.05
			s-1.037-0.818-1.303-1.555c-0.67-2.139-2.074-3.21-4.213-3.21c-1.203,0-2.592,0.318-4.162,0.953
			c-1.572,0.637-3.211,1.555-4.916,2.759c-1.705,1.203-3.443,2.708-5.215,4.513c-1.771,1.806-3.395,3.879-4.865,6.219
			c-1.871,2.943-2.975,5.384-3.309,7.322c-0.336,1.94-0.236,3.31,0.301,4.112c0.066,0.2,0.25,0.451,0.551,0.752
			s0.918,0.451,1.855,0.451c2.207,0,4.43-0.651,6.67-1.956c2.24-1.304,4.297-2.908,6.17-4.813c1.871-1.906,3.393-3.912,4.563-6.019
			s1.82-3.994,1.955-5.667c0.135-1.068,0.033-1.705-0.301-1.905c-0.334-0.201-0.668-0.334-1.002-0.401
			c-0.736-0.133-1.305-0.484-1.705-1.053c-0.402-0.567-0.537-1.22-0.402-1.956c0.066-0.735,0.385-1.304,0.953-1.705
			s1.188-0.567,1.855-0.502c1.939,0.336,3.426,1.204,4.465,2.608c1.035,1.403,1.486,3.177,1.354,5.315
			c-0.201,2.207-1.021,4.648-2.457,7.322c-1.439,2.675-3.295,5.199-5.566,7.572c-2.275,2.374-4.85,4.363-7.725,5.968
			S632.465,389.803,629.455,389.803z"/>
		<path fill="#FFFFFF" d="M676.795,398.228h-35.605c-0.736,0-1.355-0.25-1.855-0.752c-0.502-0.501-0.752-1.12-0.752-1.855
			c0-0.736,0.25-1.371,0.752-1.905c0.5-0.536,1.119-0.803,1.855-0.803h35.605c0.736,0,1.369,0.267,1.906,0.803
			c0.535,0.534,0.803,1.169,0.803,1.905c0,0.735-0.268,1.354-0.803,1.855C678.164,397.978,677.531,398.228,676.795,398.228z
			 M662.953,389.803c-1.604,0-2.775-0.401-3.51-1.203c-0.736-0.803-1.203-1.404-1.404-1.806c-0.803-2.14-0.201-5.216,1.805-9.228
			c0.869-1.738,1.957-3.594,3.26-5.566c1.305-1.972,2.824-4.063,4.564-6.27c3.344-4.546,7.205-9.228,11.584-14.042
			c4.379-4.813,8.943-9.428,13.691-13.841c0.535-0.534,1.137-0.803,1.805-0.803s1.27,0.269,1.807,0.803
			c1.137,1.338,1.137,2.575,0,3.711c-4.613,4.28-9.045,8.761-13.291,13.44c-4.246,4.681-8.008,9.127-11.283,13.34
			c-1.939,2.542-3.51,4.748-4.713,6.619c-1.205,1.873-2.125,3.478-2.76,4.814c-0.635,1.339-1.07,2.392-1.303,3.16
			c-0.236,0.77-0.352,1.32-0.352,1.654h0.1c2.408,0,5.049-0.501,7.924-1.504s5.533-2.122,7.975-3.36
			c2.439-1.236,5.332-2.858,8.676-4.864c0.602-0.401,1.27-0.518,2.006-0.352c0.734,0.168,1.27,0.519,1.605,1.054
			c0.334,0.602,0.451,1.253,0.35,1.955c-0.1,0.702-0.451,1.254-1.053,1.655c-0.199,0.135-1.203,0.752-3.008,1.855
			c-1.807,1.104-4.063,2.307-6.771,3.611c-2.707,1.304-5.633,2.491-8.775,3.561C668.736,389.269,665.762,389.803,662.953,389.803z
			 M709.594,336.444h-24.473c-0.738,0-1.355-0.233-1.857-0.702c-0.5-0.467-0.752-1.068-0.752-1.806c0-0.734,0.252-1.354,0.752-1.855
			c0.502-0.501,1.119-0.752,1.857-0.752h24.473c0.734,0,1.336,0.251,1.805,0.752c0.467,0.502,0.703,1.121,0.703,1.855
			c0,0.737-0.236,1.339-0.703,1.806C710.93,336.21,710.328,336.444,709.594,336.444z M686.725,360.215
			c-0.869,0-1.604-0.401-2.207-1.204c-0.334-0.534-0.451-1.153-0.35-1.855c0.1-0.702,0.451-1.287,1.053-1.755
			c2.674-1.738,5.08-3.326,7.221-4.765c2.141-1.438,4.58-3.109,7.322-5.015c2.74-1.906,5.549-3.861,8.426-5.868
			c4.346-3.209,7.906-5.968,10.682-8.274c2.773-2.307,4.98-4.245,6.619-5.817c1.639-1.57,2.824-2.809,3.561-3.711
			s1.205-1.588,1.404-2.057h-0.701c-2.141,0-4.883,0.853-8.225,2.558c-3.346,1.705-7.189,4.163-11.535,7.372
			c-0.469,0.469-1.053,0.637-1.756,0.502c-0.701-0.133-1.32-0.502-1.855-1.104c-0.4-0.467-0.535-1.068-0.4-1.806
			c0.133-0.734,0.467-1.336,1.004-1.805c9.627-7.288,17.217-10.933,22.768-10.933c2.072,0,3.525,0.385,4.363,1.153
			c0.834,0.77,1.387,1.521,1.654,2.257c0.266,0.802,0.234,1.772-0.1,2.908c-0.336,1.138-1.305,2.658-2.91,4.563
			c-1.604,1.906-4.012,4.263-7.221,7.071s-7.59,6.253-13.139,10.331c-2.943,2.207-5.869,4.313-8.777,6.318
			c-2.908,2.007-5.5,3.796-7.773,5.366c-2.273,1.572-4.848,3.26-7.723,5.065C687.729,360.048,687.26,360.215,686.725,360.215z"/>
		<path fill="#FFFFFF" d="M694.447,389c-0.467,0-0.902-0.1-1.303-0.301c-0.67-0.401-1.088-0.952-1.254-1.654
			c-0.168-0.702-0.051-1.388,0.352-2.057l2.908-4.915c0.4-0.602,0.953-0.985,1.654-1.153c0.703-0.166,1.387-0.083,2.057,0.251
			c0.602,0.401,0.986,0.953,1.154,1.655c0.166,0.702,0.082,1.354-0.252,1.956l-3.008,5.015C696.219,388.6,695.451,389,694.447,389z"
			/>
		<path fill="#FFFFFF" d="M727.646,398.228h-35.908c-0.734,0-1.354-0.25-1.855-0.752c-0.502-0.501-0.752-1.12-0.752-1.855
			c0-0.736,0.25-1.371,0.752-1.905c0.502-0.536,1.121-0.803,1.855-0.803h35.908c0.734,0,1.336,0.267,1.805,0.803
			c0.467,0.534,0.703,1.169,0.703,1.905c0,0.735-0.236,1.354-0.703,1.855C728.982,397.978,728.381,398.228,727.646,398.228z
			 M715.609,390.305c-0.736,0-1.404-0.067-2.006-0.201c-0.602-0.135-1.17-0.301-1.705-0.501c-1.404-0.535-2.475-1.337-3.209-2.407
			c-0.736-1.069-1.17-2.272-1.305-3.611c-0.135-2.006,0.418-4.212,1.656-6.619c1.236-2.407,2.824-4.765,4.764-7.071
			c1.939-2.308,4.111-4.479,6.52-6.52c2.406-2.039,4.68-3.727,6.82-5.065c5.75-3.343,10.131-4.012,13.139-2.006
			c1.939,1.138,2.91,2.843,2.91,5.115c0,1.339-0.352,2.625-1.055,3.861c-0.701,1.238-1.539,2.357-2.508,3.36
			s-1.939,1.873-2.908,2.607c-0.969,0.737-1.723,1.238-2.256,1.505c-0.67,0.335-1.338,0.436-2.006,0.301
			c-0.67-0.133-1.205-0.502-1.605-1.104s-0.502-1.254-0.301-1.956s0.566-1.253,1.104-1.654c2.006-1.27,3.576-2.558,4.713-3.861
			c1.137-1.305,1.705-2.323,1.705-3.06c0-0.133-0.033-0.251-0.1-0.351c-0.066-0.101-0.268-0.217-0.602-0.352
			c-0.4-0.334-1.271-0.366-2.607-0.101c-1.338,0.269-2.977,1.003-4.914,2.207c-2.207,1.338-4.363,2.926-6.471,4.764
			c-2.105,1.84-3.979,3.712-5.617,5.617s-2.941,3.762-3.91,5.566c-0.971,1.806-1.389,3.311-1.254,4.514
			c0,0.736,0.367,1.238,1.104,1.505c1.068,0.468,2.539,0.501,4.412,0.1c1.871-0.4,3.928-1.103,6.168-2.105
			c2.24-1.004,4.564-2.189,6.971-3.562c2.408-1.369,4.68-2.823,6.82-4.362c0.604-0.401,1.254-0.535,1.957-0.401
			c0.701,0.135,1.254,0.501,1.654,1.104c0.467,0.602,0.635,1.253,0.502,1.955c-0.135,0.702-0.535,1.222-1.203,1.555
			c-1.271,0.938-2.91,2.041-4.916,3.311c-2.006,1.271-4.18,2.491-6.52,3.66c-2.34,1.171-4.73,2.174-7.17,3.01
			C719.939,389.886,717.682,390.305,715.609,390.305z"/>
		<path fill="#FFFFFF" d="M764.654,398.228h-37.01c-0.736,0-1.355-0.25-1.855-0.752c-0.502-0.501-0.752-1.12-0.752-1.855
			c0-0.736,0.25-1.371,0.752-1.905c0.5-0.536,1.119-0.803,1.855-0.803h37.01c0.734,0,1.354,0.267,1.855,0.803
			c0.502,0.534,0.752,1.169,0.752,1.905c0,0.735-0.25,1.354-0.752,1.855C766.008,397.978,765.389,398.228,764.654,398.228z
			 M752.92,389.803c-3.145,0-5.518-1.27-7.121-3.812c-1.07-2.071-1.305-4.546-0.703-7.422c0.602-2.874,1.973-5.951,4.113-9.228
			c1.604-2.474,3.393-4.765,5.365-6.871c1.973-2.105,3.994-3.894,6.068-5.365c2.072-1.471,4.145-2.624,6.219-3.461
			c2.072-0.835,4.012-1.254,5.816-1.254c2.141,0,4.014,0.587,5.617,1.756c1.605,1.171,2.773,2.793,3.512,4.864
			c0.266,0.669,0.232,1.304-0.102,1.905c-0.336,0.603-0.869,1.071-1.604,1.404c-0.67,0.269-1.305,0.251-1.906-0.05
			s-1.037-0.818-1.305-1.555c-0.668-2.139-2.072-3.21-4.213-3.21c-1.203,0-2.592,0.318-4.162,0.953
			c-1.572,0.637-3.209,1.555-4.914,2.759c-1.705,1.203-3.445,2.708-5.215,4.513c-1.773,1.806-3.395,3.879-4.865,6.219
			c-1.873,2.943-2.977,5.384-3.311,7.322c-0.334,1.94-0.234,3.31,0.301,4.112c0.066,0.2,0.252,0.451,0.553,0.752
			s0.918,0.451,1.855,0.451c2.207,0,4.428-0.651,6.67-1.956c2.238-1.304,4.295-2.908,6.168-4.813
			c1.871-1.906,3.393-3.912,4.564-6.019c1.168-2.106,1.82-3.994,1.955-5.667c0.133-1.068,0.033-1.705-0.301-1.905
			c-0.336-0.201-0.67-0.334-1.004-0.401c-0.736-0.133-1.303-0.484-1.705-1.053c-0.4-0.567-0.535-1.22-0.4-1.956
			c0.066-0.735,0.385-1.304,0.953-1.705c0.566-0.401,1.186-0.567,1.855-0.502c1.938,0.336,3.426,1.204,4.463,2.608
			c1.035,1.403,1.488,3.177,1.354,5.315c-0.199,2.207-1.02,4.648-2.457,7.322c-1.438,2.675-3.293,5.199-5.566,7.572
			c-2.273,2.374-4.85,4.363-7.723,5.968C758.869,389,755.928,389.803,752.92,389.803z"/>
		<path fill="#FFFFFF" d="M823.73,398.228h-59.076c-0.736,0-1.338-0.25-1.807-0.752c-0.467-0.501-0.701-1.12-0.701-1.855
			c0-0.736,0.234-1.371,0.701-1.905c0.469-0.536,1.07-0.803,1.807-0.803h59.076c0.734,0,1.369,0.267,1.906,0.803
			c0.533,0.534,0.801,1.169,0.801,1.905c0,0.735-0.268,1.354-0.801,1.855C825.1,397.978,824.465,398.228,823.73,398.228z
			 M778.496,388.6c-0.67,0-1.205-0.167-1.605-0.502c-0.537-0.467-0.854-1.053-0.953-1.755s0.115-1.32,0.652-1.855
			c1.336-1.738,3.008-3.928,5.014-6.57c2.008-2.641,3.996-5.331,5.969-8.074c1.971-2.74,3.744-5.298,5.316-7.673
			c1.57-2.372,2.557-4.162,2.959-5.365c-0.602-0.134-1.121-0.417-1.555-0.854c-0.436-0.434-0.652-0.985-0.652-1.654
			c0-0.735,0.266-1.354,0.803-1.855c0.533-0.502,1.168-0.753,1.904-0.753c1.338,0,2.324,0.269,2.959,0.803
			c0.635,0.536,1.119,1.104,1.455,1.705c0.467,0.803,0.584,1.84,0.352,3.109c-0.236,1.271-1.07,3.109-2.508,5.517
			c-1.439,2.407-3.596,5.584-6.469,9.528c-2.877,3.946-6.756,9.027-11.635,15.245C779.965,388.266,779.297,388.6,778.496,388.6z
			 M797.252,389.803c-0.67,0-1.238-0.2-1.705-0.602c-0.469-0.401-0.754-0.953-0.854-1.655s0.115-1.354,0.652-1.956
			c0.602-0.802,1.369-1.805,2.307-3.009c0.936-1.203,1.939-2.523,3.01-3.962c1.068-1.437,2.172-2.941,3.309-4.514
			c1.137-1.57,2.207-3.125,3.211-4.663c1.469-2.272,2.623-4.195,3.459-5.768c0.836-1.57,1.438-2.842,1.807-3.812
			c0.365-0.969,0.566-1.688,0.602-2.156c0.033-0.467,0.016-0.768-0.051-0.902c-0.803-0.267-1.723-0.151-2.758,0.351
			c-1.037,0.502-2.525,1.422-4.463,2.758c-0.537,0.469-1.154,0.619-1.855,0.452c-0.703-0.167-1.289-0.518-1.756-1.054
			c-0.336-0.602-0.418-1.236-0.25-1.905c0.166-0.668,0.516-1.236,1.053-1.705c0.803-0.603,1.654-1.22,2.557-1.855
			c0.902-0.635,1.855-1.153,2.859-1.555c1.002-0.401,2.039-0.652,3.109-0.753c1.068-0.1,2.172,0.051,3.309,0.452
			c0.803,0.2,1.471,0.602,2.006,1.203s0.969,1.304,1.305,2.106c0.334,1.271,0.234,2.843-0.301,4.714
			c-0.535,1.873-1.555,4.162-3.059,6.871c-1.506,2.708-3.527,5.867-6.068,9.478c-2.543,3.611-5.652,7.758-9.328,12.438
			c-0.336,0.268-0.686,0.501-1.053,0.702C797.936,389.703,797.584,389.803,797.252,389.803z M815.707,389.803
			c-1.271,0-2.156-0.251-2.658-0.752c-0.502-0.502-0.82-0.919-0.953-1.254c-0.736-1.537-0.418-3.394,0.953-5.566
			c1.369-2.173,3.76-5.332,7.172-9.479c1.469-1.738,2.891-3.461,4.262-5.166c1.369-1.705,2.623-3.359,3.762-4.965
			c1.336-1.871,2.121-3.242,2.357-4.111c0.232-0.869,0.35-1.438,0.35-1.705h-0.1c-1.004-0.267-2.105-0.066-3.311,0.602
			c-1.203,0.669-2.674,1.604-4.412,2.809c-0.537,0.4-1.154,0.551-1.855,0.451c-0.703-0.101-1.289-0.451-1.756-1.054
			c-0.4-0.534-0.551-1.187-0.451-1.955s0.451-1.32,1.053-1.655c1.738-1.27,3.594-2.423,5.566-3.461
			c1.973-1.035,4.129-1.286,6.471-0.752c1.268,0.336,2.172,0.87,2.707,1.604c0.535,0.737,0.869,1.305,1.004,1.705
			c0.801,2.342,0.115,5.166-2.057,8.476c-2.174,3.311-5.334,7.473-9.479,12.487c-1.07,1.339-2.207,2.743-3.41,4.213
			c-1.203,1.472-2.174,2.775-2.908,3.911c1.135-0.4,2.389-0.936,3.76-1.604c1.371-0.668,2.742-1.404,4.113-2.206
			c1.369-0.803,2.674-1.605,3.912-2.407c1.236-0.803,2.256-1.471,3.059-2.007l1.605-1.103c0.666-0.401,1.354-0.518,2.055-0.352
			c0.703,0.168,1.221,0.519,1.555,1.054c0.402,0.602,0.518,1.253,0.352,1.955c-0.168,0.702-0.518,1.254-1.053,1.655
			c-0.268,0.201-0.535,0.368-0.803,0.502c-0.268,0.135-0.535,0.335-0.803,0.602c-1.738,1.138-3.51,2.273-5.314,3.41
			c-1.807,1.138-3.578,2.156-5.316,3.059c-1.74,0.903-3.41,1.64-5.016,2.207C818.514,389.52,817.043,389.803,815.707,389.803z"/>
	</g>
	<g>
		<path fill="#FFFFFF" d="M213.163,462.879l-4.879-8.828h-3.874v8.828h-5.289v-24.844h11.621c5.177,0,8.381,3.389,8.381,8.008
			c0,4.357-2.794,6.742-5.476,7.375l5.625,9.461H213.163z M213.685,446.006c0-2.049-1.602-3.314-3.688-3.314h-5.587v6.703h5.587
			C212.083,449.395,213.685,448.129,213.685,446.006z"/>
		<path fill="#FFFFFF" d="M223.075,462.879v-24.844h5.289v24.844H223.075z"/>
		<path fill="#FFFFFF" d="M231.569,459.377l2.905-4.135c1.75,1.826,4.469,3.391,7.896,3.391c2.942,0,4.321-1.305,4.321-2.756
			c0-4.322-14.303-1.305-14.303-10.654c0-4.133,3.576-7.561,9.423-7.561c3.948,0,7.226,1.191,9.684,3.465l-2.942,3.947
			c-2.011-1.861-4.693-2.719-7.226-2.719c-2.235,0-3.501,0.969-3.501,2.459c0,3.91,14.266,1.266,14.266,10.541
			c0,4.543-3.278,7.971-9.945,7.971C237.342,463.327,233.915,461.725,231.569,459.377z"/>
		<path fill="#FFFFFF" d="M270.384,462.879l-7.524-9.982l-1.937,2.346v7.637h-5.289v-24.844h5.289v11.063l8.79-11.063h6.518
			l-9.87,11.658l10.541,13.186H270.384z"/>
		<path fill="#FFFFFF" d="M288.901,462.879v-24.844h5.289v24.844H288.901z"/>
		<path fill="#FFFFFF" d="M297.395,459.377l2.905-4.135c1.75,1.826,4.469,3.391,7.896,3.391c2.942,0,4.321-1.305,4.321-2.756
			c0-4.322-14.303-1.305-14.303-10.654c0-4.133,3.576-7.561,9.423-7.561c3.948,0,7.226,1.191,9.684,3.465l-2.942,3.947
			c-2.011-1.861-4.693-2.719-7.226-2.719c-2.235,0-3.501,0.969-3.501,2.459c0,3.91,14.266,1.266,14.266,10.541
			c0,4.543-3.278,7.971-9.945,7.971C303.168,463.327,299.741,461.725,297.395,459.377z"/>
		<path fill="#FFFFFF" d="M331.034,462.879v-24.844h5.289v24.844H331.034z"/>
		<path fill="#FFFFFF" d="M346.978,462.879v-20.188h-7.263v-4.656h19.815v4.656h-7.226v20.188H346.978z"/>
		<path fill="#FFFFFF" d="M360.949,459.377l2.905-4.135c1.75,1.826,4.469,3.391,7.896,3.391c2.942,0,4.321-1.305,4.321-2.756
			c0-4.322-14.303-1.305-14.303-10.654c0-4.133,3.576-7.561,9.423-7.561c3.948,0,7.226,1.191,9.684,3.465l-2.942,3.947
			c-2.011-1.861-4.693-2.719-7.226-2.719c-2.235,0-3.501,0.969-3.501,2.459c0,3.91,14.266,1.266,14.266,10.541
			c0,4.543-3.278,7.971-9.945,7.971C366.722,463.327,363.295,461.725,360.949,459.377z"/>
		<path fill="#FFFFFF" d="M393.396,450.475c0-7.486,5.475-12.85,12.999-12.85c7.486,0,12.962,5.363,12.962,12.85
			s-5.476,12.852-12.962,12.852C398.872,463.327,393.396,457.961,393.396,450.475z M413.919,450.475
			c0-4.654-2.943-8.156-7.524-8.156c-4.619,0-7.561,3.502-7.561,8.156c0,4.619,2.942,8.158,7.561,8.158
			C410.977,458.633,413.919,455.094,413.919,450.475z"/>
		<path fill="#FFFFFF" d="M441.339,462.879l-4.358-17.059l-4.32,17.059h-5.624l-7.114-24.844h5.922l4.357,17.953l4.73-17.953h4.135
			l4.693,17.953l4.357-17.953h5.922l-7.076,24.844H441.339z"/>
		<path fill="#FFFFFF" d="M473.675,462.879l-11.845-16.203v16.203h-5.289v-24.844h5.438l11.509,15.605v-15.605h5.289v24.844H473.675
			z"/>
		<path fill="#FFFFFF" d="M507.315,462.879l-4.879-8.828h-3.874v8.828h-5.289v-24.844h11.621c5.178,0,8.381,3.389,8.381,8.008
			c0,4.357-2.794,6.742-5.476,7.375l5.624,9.461H507.315z M507.837,446.006c0-2.049-1.602-3.314-3.688-3.314h-5.587v6.703h5.587
			C506.235,449.395,507.837,448.129,507.837,446.006z"/>
		<path fill="#FFFFFF" d="M517.228,462.879v-24.844h17.581v4.656h-12.292v5.213h12.031v4.656h-12.031v5.662h12.292v4.656H517.228z"
			/>
		<path fill="#FFFFFF" d="M557.942,462.879l-4.357-17.059l-4.321,17.059h-5.624l-7.114-24.844h5.923l4.357,17.953l4.73-17.953h4.134
			l4.693,17.953l4.358-17.953h5.922l-7.077,24.844H557.942z"/>
		<path fill="#FFFFFF" d="M588.677,462.879l-1.564-4.209H576.46l-1.564,4.209h-5.997l9.573-24.844h6.63l9.572,24.844H588.677z
			 M581.786,443.325l-3.874,10.689h7.748L581.786,443.325z"/>
		<path fill="#FFFFFF" d="M611.03,462.879l-4.879-8.828h-3.874v8.828h-5.289v-24.844h11.621c5.178,0,8.381,3.389,8.381,8.008
			c0,4.357-2.794,6.742-5.476,7.375l5.624,9.461H611.03z M611.552,446.006c0-2.049-1.602-3.314-3.688-3.314h-5.587v6.703h5.587
			C609.95,449.395,611.552,448.129,611.552,446.006z"/>
		<path fill="#FFFFFF" d="M620.941,462.879v-24.844h9.796c7.785,0,13.186,4.953,13.186,12.402c0,7.523-5.4,12.441-13.148,12.441
			H620.941z M638.522,450.438c0-4.357-2.682-7.746-7.748-7.746h-4.544v15.531h4.507
			C635.654,458.223,638.522,454.684,638.522,450.438z"/>
	</g>
</g>
</svg>
